C:/Program Files/Krita (x64)/bin/ffmpeg.exe -hide_banner -y -y -r 3 -start_number 0 -start_number_range 1 -i C:/Users/Alumne-tarda/Pictures/RUN ANIME%04d.png -i F:/SHADORN/shadorn/assets/entities/KritaTempPalettegen_%06d.png -lavfi [0:v][1:v]paletteuse=dither=sierra2_4a:diff_mode=none -f gif -loop 0 -gifflags +transdiff F:/SHADORN/shadorn/assets/entities/rocky.gif
=====================================================
Input #0, image2, from 'C:/Users/Alumne-tarda/Pictures/RUN ANIME%04d.png':
  Duration: 00:00:00.12, start: 0.000000, bitrate: N/A
  Stream #0:0: Video: png, rgba(pc), 84x86 [SAR 39330:39330 DAR 42:43], 25 fps, 25 tbr, 25 tbn, 25 tbc
Input #1, image2, from 'F:/SHADORN/shadorn/assets/entities/KritaTempPalettegen_%06d.png':
  Duration: 00:00:00.04, start: 0.000000, bitrate: N/A
  Stream #1:0: Video: png, rgba(pc), 16x16 [SAR 1:1 DAR 1:1], 25 fps, 25 tbr, 25 tbn, 25 tbc
Stream mapping:
  Stream #0:0 (png) -> paletteuse:default
  Stream #1:0 (png) -> paletteuse:palette
  paletteuse -> Stream #0:0 (gif)
Press [q] to stop, [?] for help
Output #0, gif, to 'F:/SHADORN/shadorn/assets/entities/rocky.gif':
  Metadata:
    encoder         : Lavf58.76.100
  Stream #0:0: Video: gif, pal8(pc, gbr/unknown/unknown, progressive), 84x86 [SAR 1:1 DAR 42:43], q=2-31, 200 kb/s, 3 fps, 100 tbn (default)
    Metadata:
      encoder         : Lavc58.134.100 gif
frame=    1 fps=0.0 q=-0.0 size=       0kB time=00:00:00.01 bitrate=   0.0kbits/s speed=0.671x    frame=    3 fps=0.0 q=-0.0 Lsize=       8kB time=00:00:00.68 bitrate=  95.2kbits/s speed=37.5x    
video:8kB audio:0kB subtitle:0kB other streams:0kB global headers:0kB muxing overhead: 0.247862%
